<svg xmlns="http://www.w3.org/2000/svg" width="256" height="256"><path fill-opacity=".016" d="M0 128.004v128.004l128.25-.254 128.25-.254.254-127.75L257.008 0H0v128.004m.485.496c0 70.4.119 99.053.265 63.672.146-35.38.146-92.98 0-128C.604 29.153.485 58.1.485 128.5" fill="#1976D2" fill-rule="evenodd"/><path fill-opacity=".115" d="M119.441 31.468c-1.067.808-3.066 1.486-4.441 1.508-1.666.026-2.886.871-3.656 2.532-.636 1.371-1.03 2.492-.876 2.492.154 0 2.194-.675 4.532-1.5 5.015-1.769 6.934-1.856 10.567-.475 2.525.96 2.593 1.141 1.065 2.829-1.839 2.032-2.134 6.339-.627 9.155.685 1.28.655 2.644-.094 4.288-1.754 3.849 3.309 13.072 10.146 18.484 7.082 5.606 11.453 7.533 15.403 6.792 2.02-.378 3.832-.062 5.089.888 1.073.811 2.851 1.497 3.951 1.524 1.1.027 3.062 1.169 4.361 2.538 1.32 1.392 4.015 2.753 6.117 3.089 2.239.359 5.298 1.972 7.571 3.995C182.037 92.71 182.908 93 188.731 93 196.993 93 201 94.957 201 98.992c0 1.617.768 4.552 1.708 6.521l1.707 3.581-2.849 2.272c-2.812 2.242-2.826 2.307-1.093 4.953.966 1.474 2.097 2.681 2.513 2.681.416 0 1.071 2.79 1.457 6.201 1.139 10.064.734 9.799 14.969 9.799h12.342l-.507 4.499c-.605 5.37 2.254 10.377 7.552 13.227 5.534 2.976 7.903 10.44 4.669 14.715-.807 1.068-1.468 3.064-1.468 4.436 0 1.372-.947 3.502-2.105 4.735-2.282 2.428-1.833 4.388 1.005 4.388 2.093 0 8.1-11.49 8.1-15.493 0-1.394.48-3.316 1.068-4.271 1.486-2.417-1.269-8.677-4.823-10.958-1.51-.969-3.611-2.547-4.669-3.507-2.495-2.262-4.616-8.331-3.352-9.595.52-.52.795-2.01.611-3.311-.33-2.333-.512-2.369-13.467-2.643l-13.132-.278-.425-5.874c-.318-4.408-1.097-6.756-3.118-9.406-3.248-4.258-3.388-5.664-.565-5.664 1.943 0 2.069-.369 1.449-4.25-.374-2.338-1.106-4.677-1.628-5.2-.522-.522-.949-2.365-.949-4.095 0-1.746-.778-3.825-1.75-4.674-2.743-2.396-9.112-4.063-13.349-3.495-3.304.444-4.486.026-8.133-2.874-2.348-1.866-5.042-3.397-5.987-3.402-1.944-.011-9.5-3.746-10.345-5.114-.305-.493-1.427-.896-2.495-.896S162 75.622 162 75.161c0-.462-1.137-1.358-2.528-1.992-1.925-.877-2.985-.866-4.449.049-2.346 1.465-6.482-.282-14.052-5.934-6.449-4.815-8.971-9.625-8.971-17.115 0-3.219-.541-6.31-1.225-6.994-.967-.967-.967-1.639 0-3.186 2.094-3.354 1.474-6.411-1.679-8.273-3.561-2.104-7.082-2.194-9.655-.248m-14.191.892c-2.526 1.251-2.95 3.158-.878 3.952.775.298 2.31-.743 3.53-2.393 2.27-3.07 1.415-3.573-2.652-1.559m-10.165 5.772c-1.444 1.17-2.041 2.311-1.495 2.856.546.545 1.822-.04 3.19-1.462 2.849-2.961 1.555-4.025-1.695-1.394m8.672 2.096c-.225.676-1.46 1.238-2.745 1.25-2.76.026-3.79 2.01-1.5 2.888 1.587.609 7.488-2.98 7.488-4.554 0-1.296-2.791-.938-3.243.416m-19.09 3.439c-.367.366-.667 1.266-.667 2 0 2.123 3.711 1.546 4.29-.667.375-1.434.03-2-1.217-2-.957 0-2.04.3-2.406.667m7.083 1.413c-2.054 1.196-2.361 4.92-.405 4.92C92.946 50 96 46.832 96 45.171c0-1.426-1.888-1.466-4.25-.091m-28.5 2.068c-1.706 1.709-1.574 5.339.25 6.852.825.685 1.5 1.67 1.5 2.189 0 .52 1.178 2.489 2.619 4.378 2.74 3.592 6.036 4.496 7.022 1.925.616-1.605-2.062-6.459-4.298-7.792-.739-.44-1.345-1.34-1.348-2-.003-.66-1.015-2.461-2.25-4.002-1.798-2.244-2.494-2.553-3.495-1.55M72 50.845c0 5.021 7.162 6.662 12.681 2.905C88.246 51.323 88.888 50 86.5 50c-.825 0-1.5.45-1.5 1 0 1.598-5.004 1.154-5.638-.5-.356-.926-1.875-1.5-3.969-1.5-2.631 0-3.393.414-3.393 1.845M14.37 75.203c-3.682 2.616-9.368 12.649-9.376 16.545-.003 1.514-.494 4.513-1.092 6.666-1.38 4.972.419 18.205 3.324 24.452 1.991 4.282 7.26 10.291 13.336 15.21 4.119 3.334 6.076 7.206 7.417 14.674 1.313 7.314-.197 17.924-2.851 20.039-1.422 1.133-1.437 1.404-.123 2.228 3.107 1.948 7.42-1.085 8.557-6.017.317-1.375.995-3.534 1.507-4.797 1.998-4.93.503-17.25-2.872-23.662-.856-1.627-3.817-5.002-6.578-7.5-13.025-11.779-13.916-13.724-14.017-30.601-.081-13.68 1.166-18.965 5.635-23.879C19.01 76.612 19.659 73 18.236 73c-.42 0-2.16.991-3.866 2.203m17.88.471c-2.984 2.082-2.849 4.138.323 4.934 3.282.823 4.858-.753 4.035-4.035-.742-2.955-1.258-3.061-4.358-.899m29.5.559c-3.806 1.292-3.669 4.902.303 8.012l3.053 2.389.04 42.302.04 42.302-3.093 2.824c-3.241 2.96-3.915 5.716-1.893 7.738.759.759 4.575 1.2 10.389 1.2 7.43 0 9.624-.352 11.459-1.838 3.734-3.024 1.654-4.162-7.607-4.162-4.643 0-8.441-.34-8.441-.756s1.297-1.33 2.881-2.031c1.982-.877 3.075-2.242 3.5-4.369.819-4.093.606-81.747-.231-84.422-.357-1.143-2.225-3.888-4.15-6.101-3.146-3.616-3.778-3.928-6.25-3.088m46.176.112c-3.578 1.777-3.577 4.929.002 7.941l3.032 2.551.062 42.247.061 42.247-3.041 2.778c-3.195 2.918-3.855 5.678-1.842 7.691 1.834 1.834 22.612 1.594 27.178-.313 1.992-.833 3.622-1.905 3.622-2.384 0-.478.945-1.117 2.101-1.419 1.156-.303 1.804-1.029 1.441-1.617-.834-1.349-3.542-1.401-3.542-.067 0 .613-4.833 1-12.5 1-6.875 0-12.5-.353-12.5-.784 0-.432 1.35-1.582 3-2.557l3-1.772.155-12.194c.085-6.706.094-20.068.018-29.693a10686.8 10686.8 0 0 1-.196-32l-.059-14.5-3.783-4.18c-3.468-3.832-3.984-4.08-6.209-2.975M18.648 78.99C16.541 81.119 17.197 83 20.046 83 22.222 83 27 89.813 27 92.915c0 1.075.486 3.222 1.08 4.77.594 1.548 1.381 5.515 1.75 8.815.596 5.334.935 6.037 3.057 6.337 1.313.186 2.768-.264 3.235-1 1.319-2.081.945-10.909-.651-15.337-.792-2.2-1.448-5.028-1.456-6.285-.03-4.565-7.6-13.266-11.445-13.156-1.139.033-2.903.902-3.922 1.931m59.958 2.488c-1.868 2.852-1.102 5.921.822 3.29.617-.844 2.011-1.706 3.097-1.915 2.63-.506 2.534-3.273-.127-3.653-1.368-.195-2.692.6-3.792 2.278m43.888-1.469c-1.078 1.745.556 5.186 2.169 4.567.815-.313 2.35-.104 3.411.464 3.383 1.81 4.928 7.442 4.895 17.832-.026 8.002-.423 10.427-2.351 14.361-2.402 4.901-2.352 6.621.134 4.558 1.155-.959 1.798-.713 3.28 1.252 1.751 2.321 1.881 2.346 2.586.51.458-1.193.29-2.084-.438-2.326-1.317-.439-1.639-3.227-.372-3.227.444 0 1.569-1.726 2.5-3.836 2.555-5.793 2.38-22.952-.285-27.954-3.534-6.63-4.325-7.21-9.824-7.21-2.795 0-5.362.454-5.705 1.009m0 46c-.342.555-.338 1.906.009 3.002.459 1.443 1.235 1.847 2.815 1.464 2.412-.585 7.671 3.27 7.697 5.641.008.761.664 3.184 1.456 5.384.793 2.2 1.461 6.186 1.485 8.857.061 6.745-2.887 18.695-5.271 21.367-1.826 2.047-1.849 2.276-.278 2.879 1.102.423 2.988-.382 5.322-2.272 5.014-4.058 7.467-12.622 6.968-24.331-.406-9.53-2.15-14.937-6.348-19.685-2.505-2.834-3.477-3.229-8.04-3.269-2.855-.025-5.472.408-5.815.963M4.5 144.577c-1.886 1.427-1.987 2.546-1.779 19.606.122 9.951.48 18.351.796 18.667.315.316 1.447.029 2.515-.638 2.658-1.66 6.466-1.522 7.968.288 2.091 2.52 10.904 1.915 14.461-.992 3.157-2.58 2.763-4.753-.493-2.72-2.9 1.811-3.965 1.547-9.71-2.41-4.337-2.987-5.522-3.404-6.758-2.378-1.313 1.089-1.518.136-1.64-7.628-.298-18.812-.41-20.91-1.182-22.122-1.015-1.594-1.712-1.539-4.178.327m41.104 18.57c-5.53 6.468-3.216 21.43 3.194 20.655 3.697-.447 5.062-3.195 2.818-5.674-1.419-1.568-1.717-3.223-1.405-7.809.218-3.2.597-6.483.842-7.295.734-2.425-3.35-2.333-5.449.123m45.538.4c-2.851 3.624-3.462 7.593-2.146 13.932.946 4.559 1.57 5.625 3.588 6.131 2.564.644 5.416-.977 5.416-3.079 0-.673-.748-2.722-1.661-4.554-1.378-2.762-1.482-4.195-.611-8.404.578-2.79.849-5.411.602-5.823-.897-1.5-3.23-.692-5.188 1.797m63.108.173c-1.853 2.139-2.244 3.759-2.217 9.188.036 7.143 2.057 11.092 5.677 11.092 3.753 0 6.002-5.129 2.79-6.362-1.748-.671-2.183-12.098-.5-13.138.55-.34 1-1.266 1-2.059 0-2.36-4.304-1.545-6.75 1.279M210 178.5c-.83 1-3.075 1.5-6.738 1.5-6.373 0-15.262 2.834-15.262 4.866 0 1.069.878 1.234 3.75.706 2.063-.379 6.225-1.026 9.25-1.437 3.025-.411 6.523-1.306 7.772-1.989 3.241-1.769 13.415-.42 20.496 2.718 5.067 2.245 5.892 3.017 6.789 6.346.8 2.974 1.509 3.79 3.29 3.79 1.249 0 3.144-.668 4.212-1.484 1.901-1.452 1.894-1.496-.309-2.116-1.664-.468-2.25-1.381-2.25-3.504 0-2.259-.848-3.406-3.98-5.383-2.189-1.382-4.552-2.527-5.25-2.545-.699-.017-2.144-.692-3.211-1.5-2.737-2.07-16.834-2.046-18.559.032m-28.135 3.75c-.751 1.238-2.25 4.05-3.333 6.25-1.082 2.2-2.769 5.073-3.75 6.385-.994 1.33-1.782 4.101-1.782 6.266 0 4.306-2.065 11.849-3.243 11.849-.417 0-.757.675-.757 1.5 0 .995.995 1.5 2.955 1.5 2.587 0 3.036-.437 3.613-3.511.362-1.931 1.058-3.758 1.545-4.059.488-.301.887-3.391.887-6.867 0-4.396.456-6.697 1.5-7.563.825-.685 1.5-1.865 1.5-2.622 0-.758.363-1.378.808-1.378.885 0 4.192-6.97 4.192-8.836 0-1.988-2.7-1.279-4.135 1.086m-162.07 14.524c-9.84 7.239-3.665 17.74 10.01 17.024 4.805-.251 5.85-.652 6.688-2.562.546-1.245 1.446-2.09 2-1.877.573.22 1.096-1.669 1.213-4.384.256-5.917-1.767-8.556-7.251-9.459L26 194.456c-1.628-.266-3.792.541-6.205 2.318m24.409-1.52c-2.305 2.778-2.012 17.222.368 18.135 2.305.885 5.947-1.27 4.535-2.682-2.177-2.177-1.17-3.433 2.52-3.141 2.436.194 4.669 1.297 6.798 3.361 1.744 1.69 3.95 3.073 4.904 3.073 2.68 0 3.071-2.654.758-5.137-2.336-2.507-2.599-3.951-1.009-5.541.593-.593.931-2.361.75-3.928-.29-2.521-.844-2.937-4.8-3.607-2.459-.417-5.9-.364-7.645.118-2.353.65-3.546.504-4.614-.565-1.208-1.207-1.623-1.221-2.565-.086m24.463-.587c-.367.366-.667 3.934-.667 7.927 0 6.653.221 7.434 2.635 9.333 4.821 3.793 19.722 2.024 16.08-1.909-.976-1.054-.87-1.191.535-.697 1.546.545 1.75-.115 1.75-5.661 0-6.44-1.718-10.571-3.848-9.254-.656.405-1.152 3.219-1.152 6.531 0 3.454-.508 6.224-1.25 6.818-5.161 4.129-10.912.869-10.032-5.686.688-5.135-1.79-9.664-4.051-7.402m24.462 1.493c-.524 1.378-.975 5.465-1.003 9.082-.055 7.165 1.253 9.407 4.826 8.273 2.203-.699 2.661-2.018 1.048-3.015-.55-.34-1-1.224-1-1.964 0-2.594 8.188-.704 11.073 2.556 2.849 3.22 5.048 3.672 6.917 1.42 1-1.205.929-1.606-.377-2.107-.887-.341-1.613-1.191-1.613-1.89 0-.698-.675-1.83-1.5-2.515-1.944-1.614-1.915-3 .063-3 1.16 0 1.483-.834 1.25-3.228-.288-2.974-.664-3.287-4.785-3.986-2.459-.416-5.9-.363-7.645.119-2.419.668-3.545.504-4.737-.688-1.418-1.418-1.652-1.33-2.517.943m26.621 1.756c-3.929 4.157-4.488 6.371-2.632 10.443 1.782 3.912 6.491 5.835 13.382 5.464 5.111-.275 6.147-.659 6.993-2.587.546-1.245 1.448-2.089 2.004-1.875 1.582.607 1.567-8.58-.017-11.017-.914-1.404-2.897-2.385-5.691-2.816a8464.81 8464.81 0 0 0-7.289-1.119c-2.494-.382-3.633.21-6.75 3.507m-98.065 1.341c-2.781 2.869-1.408 7.172 2.946 9.238 3.251 1.543 3.764 1.546 6.94.039C33.98 207.39 35 206.236 35 204.653c0-3.241-1.866-4.653-6.15-4.653-2.063 0-4.11-.589-4.55-1.308-.629-1.027-1.189-.906-2.615.565m101.065-.539c-2.921 3.237-2.237 6.818 1.775 9.297 3.299 2.039 3.764 2.084 7.25.7 6.671-2.65 4.741-8.715-2.773-8.715-2.744 0-3.949-.464-4.179-1.61-.28-1.399-.553-1.356-2.073.328m-74.751 3.599c.001 2.496.258 2.725 2.251 2.006 1.237-.446 3.938-.792 6-.768 2.063.023 3.743-.204 3.735-.506-.053-1.889-2.133-2.874-6.736-3.19-5.177-.354-5.25-.319-5.25 2.458M97 202.38c0 2.322.207 2.421 3.243 1.55 1.784-.511 4.522-.93 6.084-.93 1.825 0 2.692-.447 2.427-1.25-.248-.753-2.665-1.369-6.083-1.55-5.451-.288-5.671-.204-5.671 2.18M0 220.41v4.576l68.75.257 68.75.257 2 4.232c1.846 3.906 2.301 4.234 5.905 4.25 3.72.017 3.827-.069 2.25-1.811-.91-1.006-1.655-2.573-1.655-3.484 0-.91-1.238-3.034-2.75-4.718l-2.75-3.062-68.005.065-68.005.066-.995-2.205C1.646 214.737 0 215.479 0 220.41m150-3.385c0 .563-1.158 1.465-2.573 2.003-3.126 1.188-2.931 4.326.298 4.787 1.66.237 2.363-.319 2.848-2.25.354-1.411 1.045-2.565 1.535-2.565.491 0 .892-.675.892-1.5s-.675-1.5-1.5-1.5-1.5.461-1.5 1.025m4.667 3.36c-.86 1.312-1.353 2.596-1.097 2.852.257.256 2.729.249 5.494-.017 4.217-.405 5.408-.125 7.392 1.739 2.719 2.554 5.855 2.38 6.382-.354.654-3.401-4.569-6.528-10.973-6.569-4.856-.031-5.851.294-7.198 2.349" fill="#1976D2" fill-rule="evenodd"/><path fill-opacity=".266" d="M122.887 32.091c-.825.522-.923.885-.243.894.63.008 2.565 1.342 4.301 2.964 2.395 2.237 3.288 2.607 3.7 1.533.299-.779.374-1.925.166-2.548-.594-1.783-6.341-3.845-7.924-2.843m3.78 8.576c-1.134 1.133-.739 4.966.821 7.969.88 1.695 1.084 3 .5 3.197-3.347 1.13 2.602 14.252 8.008 17.664 1.943 1.227 4.098 2.911 4.788 3.742 1.876 2.261 10.037 4.34 11.458 2.919.844-.844.372-1.285-1.85-1.73-1.641-.328-4.397-1.796-6.124-3.262a208.29 208.29 0 0 0-6.242-5.059c-4.238-3.269-8.227-11.854-7.408-15.946.402-2.01.029-4.385-1.043-6.645-1.788-3.767-1.89-3.867-2.908-2.849M63 49.887c0 2.292 5.943 11.729 7.917 12.573 2.796 1.195 3.093-1.166.607-4.829-1.388-2.046-2.539-4.037-2.557-4.425C68.907 51.946 65.21 48 64.09 48c-.6 0-1.09.849-1.09 1.887m10.702.744C72.314 52.019 75.157 55 77.869 55c4.056 0 4.536-1.093 1.389-3.168-2.893-1.908-4.501-2.255-5.556-1.201m81.518 24.528c.63 1.89 15.296 9.841 18.153 9.841.791 0 3.323 1.575 5.627 3.5 4.349 3.634 7 4.457 7 2.174 0-2.45-8.948-8.674-12.471-8.674-.914 0-3.137-1.125-4.94-2.5-1.803-1.375-3.968-2.5-4.811-2.5s-2.093-.675-2.778-1.5c-1.465-1.766-6.351-2.054-5.78-.341M12.449 78.242C6.718 85.054 5.602 89.251 5.602 104c0 16.154 1.29 19.932 9.413 27.573 11.381 10.706 11.651 11.067 13.35 17.829 2.08 8.28 2.023 12.786-.244 19.348-1.709 4.947-1.714 5.25-.082 5.25 6.393 0 8.735-22.128 3.46-32.701-.834-1.673-4.853-6.098-8.931-9.835-4.077-3.738-8.117-8.408-8.976-10.38-5.183-11.888-4.686-30.227 1.106-40.776C15.964 78.002 17 75.864 17 75.558c0-1.473-2.09-.24-4.551 2.684m19.682-.9C30.81 78.934 31.626 80 34.167 80 35.333 80 36 79.273 36 78c0-2.28-2.21-2.656-3.869-.658m28.536.325c-1.474 1.473-.49 3.853 2.864 6.925l3.531 3.235-.281 43.087c-.155 23.698-.044 43.087.246 43.086.291 0 1.528-.701 2.75-1.557L72 170.887V84.974l-3.75-3.985c-3.527-3.749-6.051-4.855-7.583-3.322m45.821 1.37c-.525 1.656.043 2.769 2.453 4.809l3.137 2.654-.289 43.75c-.159 24.063.069 43.75.506 43.75.438 0 1.9-1.105 3.25-2.455l2.455-2.454V86.155l-3.295-4.327c-3.768-4.95-7.165-6.104-8.217-2.791m-85.738.043c-2.121 1.236-2.295 2.92-.301 2.92 3.938 0 8.925 11.717 10.207 23.983.573 5.482.858 6.086 2.742 5.817 2.979-.425 3.252-6.792.721-16.799-2.291-9.063-3.466-11.604-6.823-14.751-2.637-2.473-3.916-2.702-6.546-1.17m103.943.585c-2.567.715-1.703 3.913.958 3.543 2.741-.381 7.056 4.712 7.927 9.356 1.041 5.55.017 22.014-1.482 23.82-.726.875-1.031 2.342-.679 3.261.563 1.467.911 1.38 2.862-.71 3.431-3.678 4.691-8.628 4.691-18.435 0-9.553-1.445-15.42-4.567-18.542-2.025-2.025-6.705-3.13-9.71-2.293M80 81c0 .55.45 1 1 1s1-.45 1-1-.45-1-1-1-1 .45-1 1m115.561 9.902c-.307.496 1.016 1.831 2.94 2.966 2.762 1.63 3.499 2.696 3.499 5.064 0 3.761 2.935 10.068 4.685 10.068 1.792 0 1.688-5.125-.153-7.559-.808-1.067-1.483-3.306-1.5-4.975-.024-2.271-.763-3.467-2.936-4.75-3.202-1.892-5.679-2.2-6.535-.814m5.781 22.649c-.34.887.357 2.564 1.631 3.92 1.515 1.613 2.446 4.232 2.914 8.201.378 3.206 1.035 6.392 1.459 7.079.55.89 4.341 1.249 13.194 1.249h12.422l-.594 4.331c-.765 5.584 1.357 9.797 6.725 13.349 2.221 1.47 4.683 3.921 5.472 5.447 1.87 3.614 1.836 9.615-.065 11.516-1.841 1.841-2.04 6.701-.25 6.113.688-.226 1.402-1.726 1.588-3.333.187-1.608.707-3.373 1.157-3.923.45-.55 1.131-3.103 1.513-5.673.846-5.683-.93-9.225-6.341-12.645-4.293-2.714-7.322-8.522-6.938-13.304l.271-3.378-11.962-.284c-12.849-.304-13.465-.564-13.567-5.716-.078-3.953-2.093-9.452-4.49-12.251-2.265-2.645-3.323-2.824-4.139-.698m-77.675 13.116c-1.408 1.407-.557 2.333 2.146 2.333 3.448 0 7.222 3.904 9.184 9.5 1.896 5.411 1.648 21.642-.42 27.376-1.938 5.376-1.957 6.124-.159 6.124 4.029 0 8.4-16.099 7.247-26.689-.965-8.854-2.4-12.815-5.874-16.211-2.514-2.458-4.029-3.1-7.314-3.1-2.279 0-4.444.3-4.81.667M3.958 147.079c-.734 1.371-.978 7.42-.717 17.75l.397 15.671H8.5l.273-17.75c.264-17.139.205-17.75-1.715-17.75-1.093 0-2.488.936-3.1 2.079m42.05 17.413C41.484 169.307 43.466 183 48.686 183c2.292 0 2.595-2.697.825-7.333-1.357-3.552-1.472-5.144-.601-8.282 1.765-6.357 1.036-7.085-2.902-2.893m45.492-.361c-1.588 1.598-1.985 3.284-1.925 8.19.085 7.061 1.607 10.679 4.492 10.679 2.828 0 3.353-2.288 1.394-6.075-1.656-3.203-1.64-9.088.036-13.175.989-2.414-1.449-2.182-3.997.381m63.645.214c-2.918 3.107-3.13 14.454-.316 17 2.244 2.031 3.566 2.089 5.115.222.935-1.126.824-1.991-.516-4.036-1.34-2.046-1.573-3.869-1.087-8.521.34-3.254.243-6.149-.216-6.433-.459-.283-1.8.512-2.98 1.768M11.667 174.667c-.367.366-.667 1.608-.667 2.759 0 3.605 6.877 6.949 12.132 5.898 3.629-.726 3.683-2.088.118-2.954-1.512-.367-4.39-1.95-6.394-3.519-3.938-3.081-4.187-3.186-5.189-2.184m48.94 1.915C59.001 180.768 59.543 181 70.941 181c6.67 0 11.198-.416 11.6-1.067 1.189-1.924-.509-2.343-8.404-2.074-6.077.207-8.074-.078-9.085-1.297-1.666-2.006-3.671-1.998-4.445.02m45.792.965c-.352 1.4-.366 2.819-.033 3.152.734.734 26.211.4 28.217-.369 3.937-1.511.241-2.33-10.512-2.33-9.269 0-12.262-.334-13.428-1.5-2.178-2.178-3.518-1.848-4.244 1.047m134.07.503c-.95 1.538.351 2.53 1.635 1.246.718-.718.735-1.277.052-1.699-.56-.346-1.319-.142-1.687.453M213 179c0 .55 2.363 1.024 5.25 1.054 6.824.071 18.056 6.108 18.585 9.99.425 3.119 1.629 4.376 3.503 3.656 1.221-.468 1.274-1.131.309-3.882-1.943-5.542-2.981-6.339-13.944-10.704-3.478-1.385-13.703-1.47-13.703-.114m-29.5 3c-.34.55-.141 1 .441 1s1.059-.45 1.059-1-.198-1-.441-1-.719.45-1.059 1m16.769-.307c.973.254 2.323.237 3-.037.677-.274-.119-.481-1.769-.461-1.65.02-2.204.244-1.231.498m-10.456 2.99c.721.289 1.584.253 1.916-.079.332-.332-.258-.568-1.312-.525-1.165.048-1.402.285-.604.604m-9.137 1.719c-.625 1.629.215 2.784 1.463 2.012 1.136-.702 1.111-3.414-.032-3.414-.491 0-1.135.631-1.431 1.402m-5.285 8.741c-.472.746-1.145 4.057-1.495 7.357-.35 3.3-1.114 7.463-1.697 9.25-.858 2.632-.791 3.25.352 3.25.776 0 1.674-1.238 1.996-2.75.321-1.512 1.23-3.944 2.019-5.404 2.436-4.509 1.319-15.642-1.175-11.703M28.25 196.706c-3.569.687-2.622 1.981 1.894 2.587 4.59.615 5.818 1.867 5.841 5.957.016 3 1.44 3.691 2.408 1.168 2.625-6.84-2.011-11.279-10.143-9.712m15.596 2.544c-.206 1.787-.21 5.637-.01 8.554.274 3.988.725 5.229 1.817 5 .799-.167 1.429-.642 1.4-1.054-.029-.412-.053-4.125-.053-8.25 0-5.738-.327-7.5-1.391-7.5-.825 0-1.542 1.32-1.763 3.25m9.904-2.522c-4.901.513-4.855 2.272.059 2.272 2.095 0 4.682.661 5.75 1.468 2.726 2.062 3.441 1.885 3.441-.851 0-1.627-.715-2.575-2.25-2.987-1.237-.331-2.475-.533-2.75-.448-.275.085-2.187.331-4.25.546m14.873.812c-1.366 3.559-.615 10.2 1.45 12.825 1.859 2.364 2.741 2.635 8.573 2.635 5.604 0 6.455-.237 6.17-1.716-.267-1.385-1.244-1.66-5.069-1.425-6.064.373-7.547-1.103-7.94-7.902-.304-5.24-1.977-7.562-3.184-4.417m15.881.447c-.94 2.963.43 10.202 1.843 9.731 1.545-.515 1.534-10.924-.012-11.44-.641-.213-1.465.556-1.831 1.709m9.163-1.32c-.367.366-.667 4.191-.667 8.5 0 7.087.185 7.833 1.941 7.833 2.251 0 3.561-1.572 2.075-2.49-.559-.345-1.016-3.751-1.016-7.569 0-6.393-.6-8.007-2.333-6.274m9.083.061c-5.274.552-4.682 2.272.781 2.272 3.106 0 4.713.472 5.107 1.5.924 2.407 3.362 1.759 3.362-.893 0-2.301-1.879-3.792-4.332-3.439-.642.093-2.855.345-4.918.56m25.5-.022c-3.589.691-2.612 1.982 1.965 2.596 4.547.61 6.785 2.717 6.785 6.389 0 3.653 1.839 2.685 2.599-1.368.601-3.2.34-3.979-2.01-6-2.595-2.232-4.465-2.556-9.339-1.617M16.877 201.37c-2.892 6.349 2.717 11.62 12.373 11.626 4.909.003 5.75-.264 5.75-1.828 0-1.605-.669-1.777-5.386-1.386-4.511.374-5.728.104-7.5-1.668C20.92 206.92 20 204.72 20 203.059c0-3.882-1.704-4.804-3.123-1.689m101.37-1.217c-2.394 2.394-1.49 7.465 1.83 10.258 2.611 2.197 4.048 2.589 9.5 2.589 5.56 0 6.423-.246 6.423-1.832 0-1.606-.669-1.777-5.416-1.383-6.469.536-9.095-1.281-10.311-7.133-.622-2.993-1.029-3.496-2.026-2.499m-63.815 4.957c-.476.771-.224 1.459.641 1.746.785.261 2.62 1.75 4.078 3.309 1.458 1.559 3.371 2.835 4.25 2.835 2.099 0 2.022-.578-.577-4.346-1.197-1.735-2.21-3.23-2.252-3.323-.042-.093-1.264-.466-2.715-.831-1.688-.423-2.922-.204-3.425.61m49.818-.448c-1.727.697-1.573 2.338.22 2.338.809 0 2.468 1.35 3.688 3 1.22 1.65 3.033 3 4.03 3 2.148 0 2.205-.327.562-3.253-2.603-4.634-5.428-6.324-8.5-5.085M0 221.031v3.032l67.75-.101c37.263-.055 68.508.193 69.435.551.927.358 2.502 2.637 3.5 5.065 1.557 3.788 2.227 4.415 4.72 4.418 2.751.004 2.817-.093 1.25-1.825-.91-1.006-1.655-2.496-1.655-3.313 0-.816-1.307-2.736-2.904-4.266l-2.905-2.783-67.084.121c-66.199.119-67.106.094-68.818-1.905C.886 217.218 0 217.489 0 221.031m157.571-1.146c-.459.742.536 1.115 2.976 1.115 2.471 0 4.653.832 6.702 2.556 2.154 1.812 3.349 2.246 4.106 1.489.756-.756.448-1.687-1.06-3.195-2.429-2.429-11.565-3.84-12.724-1.965" fill="#1976D2" fill-rule="evenodd"/><path fill-opacity=".546" d="M129.079 35.583c.048 1.165.285 1.402.604.605.289-.722.253-1.585-.079-1.917-.332-.332-.568.258-.525 1.312M127.158 44c0 1.375.227 1.938.504 1.25.278-.687.278-1.812 0-2.5-.277-.687-.504-.125-.504 1.25M64 49.785c0 .652 1.457 3.552 3.237 6.446 2.221 3.609 3.341 4.72 3.569 3.538.182-.947-.912-3.42-2.432-5.496C64.403 48.851 64 48.438 64 49.785m65 6.622c0 2.076 3.174 8.593 4.185 8.593.448 0 .815.627.815 1.393 0 1.523 2.918 3.038 3.893 2.021.334-.348-.405-1.313-1.643-2.145-1.238-.832-2.25-2.078-2.25-2.769 0-.69-.675-1.815-1.5-2.5s-1.5-2.063-1.5-3.063c0-1.001-.45-2.097-1-2.437-.55-.34-1 .068-1 .907m10.031 13.343c.048 1.136 5.023 4.529 5.679 3.873.315-.315-.503-1.469-1.818-2.565-2.512-2.092-3.913-2.566-3.861-1.308M157 76c1.939 1.253 3 1.253 3 0 0-.55-1.012-.993-2.25-.985-1.819.013-1.963.201-.75.985M33 78c0 .55.45 1 1 1s1-.45 1-1-.45-1-1-1-1 .45-1 1m28 1.75c0 .963 1.57 3.003 3.489 4.534l3.489 2.784.261 42.216c.17 27.514.609 42.129 1.261 41.966.642-.16 1.093-15.534 1.261-42.946l.261-42.697-3.714-3.804C63.307 77.706 61 76.955 61 79.75m46.336-.183c-.391 1.018.583 2.555 2.781 4.39l3.383 2.824v42.539c0 40.449.086 42.46 1.75 40.954 1.613-1.46 1.75-4.814 1.75-42.749V86.36l-3.578-4.18c-3.858-4.507-5.147-5.061-6.086-2.613m58.039.513c1.454 1.144 3.185 1.9 3.847 1.679.662-.22-.312-1.156-2.163-2.08-4.453-2.221-4.886-2.118-1.684.401M12 80.559c0 .857.457 1.276 1.016.931.559-.346.758-1.047.441-1.559C12.6 78.544 12 78.802 12 80.559m10.286-.757c-.862.548-.36 1.578 1.73 3.551 3.262 3.079 6.345 11.682 7.5 20.933.465 3.72 1.177 5.714 2.04 5.714 2.24 0 2.294-1.187.477-10.5-2.001-10.259-3.944-15.411-6.945-18.412-2.272-2.272-2.961-2.456-4.802-1.286m103.345.986c-.268.433.841 1.375 2.464 2.094 5.317 2.353 6.413 5.983 6.337 20.979-.054 10.632.177 13.026 1.133 11.719.661-.903 1.707-5.045 2.326-9.204 1.534-10.315-.043-19.129-4.18-23.36-2.767-2.831-6.988-3.995-8.08-2.228M7.709 89.414c-2.172 8.151-2.217 21.511-.097 28.65 2.029 6.832 5.17 11.173 12.424 17.166 8.083 6.679 10.318 11.706 10.346 23.27.013 5.311-.485 9.922-1.215 11.25-1.713 3.116.217 2.838 2.293-.33 1.291-1.969 1.693-4.868 1.701-12.25.015-12.897-1.651-16.665-11.073-25.046-10.961-9.751-13.459-15.912-12.748-31.443.257-5.599.784-11.868 1.173-13.931 1.176-6.248-.973-4.205-2.804 2.664m165.041-5.752c.688.278 1.813.278 2.5 0 .688-.277.125-.504-1.25-.504s-1.937.227-1.25.504M180 88c1.1 1.1 2.52 2 3.155 2 .655 0 .371-.866-.655-2-.995-1.1-2.415-2-3.155-2-.908 0-.696.649.655 2m17.5 4c.34.55 1.266 1 2.059 1 .793 0 1.441-.45 1.441-1s-.927-1-2.059-1c-1.132 0-1.781.45-1.441 1m5.241 5.25c.218 1.787.774 4.15 1.236 5.25.463 1.1 1.187 2.9 1.608 4 .735 1.918.783 1.907 1.161-.252.216-1.238-.313-2.958-1.176-3.821-.864-.863-1.57-3.113-1.57-4.998 0-1.886-.372-3.429-.827-3.429-.455 0-.649 1.463-.432 3.25m-.724 17c.01.688 1.135 2.31 2.5 3.605 2.957 2.804 3.373.792.539-2.605-2.11-2.53-3.064-2.844-3.039-1M125.5 127c-1.955.84-1.953.861.115.93 3.165.105 7.402 3.897 9.489 8.491 1.441 3.174 1.857 6.543 1.874 15.18.012 6.105-.48 12.541-1.094 14.301-1.387 3.98-.661 4.933 1.382 1.815 2.118-3.232 3.682-17.862 2.728-25.509-1.051-8.419-2.593-11.797-6.48-14.199-3.505-2.166-4.909-2.343-8.014-1.009m82.515 2.691c-.008 1.205.435 2.469.985 2.809 1.273.787 1.273-1.53 0-3.5-.788-1.219-.972-1.09-.985.691m25.075 10.173c-.105 2.756 3.614 9.808 5.568 10.558 2.118.813 1.571-1.072-1.171-4.03-1.382-1.492-2.916-4.102-3.41-5.802-.769-2.649-.91-2.752-.987-.726M5.422 146.978c-1.521 1.521-.72 32.522.839 32.522.925 0 1.309-4.247 1.513-16.75.151-9.213-.097-16.75-.55-16.75-.453 0-1.264.44-1.802.978M242 152c1.958 1.266 3.282 1.266 2.5 0-.34-.55-1.379-.993-2.309-.985-1.457.014-1.484.15-.191.985m4 4.941c0 1.132.45 2.059 1 2.059s1-.648 1-1.441-.45-1.719-1-2.059c-.55-.34-1 .309-1 1.441m-91.057 9.165c-2.578 4.817-.678 15.894 2.726 15.894 1.733 0 1.679-1.622-.24-7.255-1.173-3.443-1.3-5.118-.5-6.612.589-1.101 1.071-2.481 1.071-3.067 0-1.813-1.871-1.176-3.057 1.04m-109.071.548C42.986 170.132 45.149 182 48.669 182c1.824 0 1.673-3.067-.289-5.868-1.138-1.625-1.472-3.624-1.123-6.722.274-2.426.383-4.41.243-4.41s-.873.744-1.628 1.654m44.608 1.438c-1.505 6.851 1.794 16.034 4.711 13.117.808-.808.662-1.784-.542-3.622-.98-1.496-1.649-4.558-1.649-7.552 0-5.596-1.469-6.729-2.52-1.943M12 177.015c0 3.493 9.702 7.895 11.388 5.167.278-.45-.981-1.356-2.798-2.013-1.817-.657-4.113-2.089-5.102-3.182-2.294-2.535-3.488-2.525-3.488.028m49.571-.252c-.314.314-.571 1.448-.571 2.52 0 1.534.48 1.822 2.25 1.347 1.237-.331 5.989-.609 10.559-.616 4.574-.008 8.063-.413 7.761-.901-.301-.488-3.679-.765-7.505-.616-4.243.166-7.926-.231-9.44-1.017-1.366-.708-2.74-1.031-3.054-.717m45.745.855c-.32.834-.184 1.824.301 2.199.486.376 6.489.543 13.342.371 8.043-.202 11.941-.636 11-1.227-.803-.503-5.113-.638-9.58-.3-6.35.48-8.815.268-11.301-.972-2.826-1.41-3.245-1.418-3.762-.071M228.5 182c.34.55 1.041 1 1.559 1s.941-.45.941-1-.702-1-1.559-1-1.281.45-.941 1m5.5 3c1.939 1.253 3 1.253 3 0 0-.55-1.012-.993-2.25-.985-1.819.013-1.963.201-.75.985m3.783 1.551c-.727.726.307 5.387 1.336 6.023.485.299.881-.806.881-2.456 0-2.838-1.13-4.655-2.217-3.567M31 197.892c0 .49 1.058 1.157 2.35 1.481 1.524.382 2.718 1.739 3.398 3.858l1.048 3.269.102-3.095c.06-1.834-.643-3.769-1.727-4.75-1.952-1.767-5.171-2.242-5.171-.763m13.709-.209c-.908 1.508-.221 13.648.791 13.985.607.202.972-2.412.929-6.655-.067-6.657-.644-9.117-1.72-7.33m12.291.2c0 .922 4.12 2.331 4.806 1.644.217-.217.098-.874-.265-1.46-.793-1.284-4.541-1.435-4.541-.184m12 4.528c0 4.815.339 5.697 3.077 8 3.324 2.798 4.6 3.09 6.923 1.589 1.147-.741.771-.973-1.595-.985-4.478-.022-6.405-2.683-6.405-8.844 0-2.844-.45-5.171-1-5.171s-1 2.435-1 5.411m16-.97c0 2.443.45 4.719 1 5.059.616.381 1-1.323 1-4.441 0-2.782-.45-5.059-1-5.059s-1 1.998-1 4.441m8.798 1.735c-.397 6.493-.105 8.824 1.109 8.824.879 0 .819-13.607-.064-14.491-.362-.361-.832 2.189-1.045 5.667M107 197.759c0 .418.86 1.297 1.911 1.953 1.519.949 2.018.916 2.431-.161.286-.746.251-1.624-.078-1.953-.864-.865-4.264-.736-4.264.161m25 .004c0 .419 1.01 1.207 2.244 1.75 1.234.543 2.403 1.887 2.597 2.987.618 3.5 2.159 4.11 2.159.855 0-1.68-.82-3.787-1.829-4.7-1.871-1.694-5.171-2.263-5.171-.892m43 2.737c0 1.925.45 3.5 1 3.5s1-1.575 1-3.5-.45-3.5-1-3.5-1 1.575-1 3.5m-158 3.943c0 2.435.657 3.904 2.245 5.016 1.565 1.096 2.361 1.223 2.629.419.212-.635-.349-1.564-1.245-2.066-.931-.521-1.629-2.175-1.629-3.862 0-1.622-.45-2.95-1-2.95s-1 1.549-1 3.443m101-.016c0 2.521.704 3.982 2.662 5.522 3.395 2.67 7.165 3.624 8.611 2.178.836-.836.236-1.135-2.323-1.158-3.915-.036-7.2-3.491-7.2-7.573 0-1.318-.394-2.396-.875-2.396s-.875 1.542-.875 3.427m-60.968 1.323c.052 1.245 5.03 6.521 5.607 5.944.658-.658-3.695-6.694-4.827-6.694-.447 0-.798.338-.78.75m48.968.028c0 .428.845 1.501 1.879 2.386 1.033.885 2.068 2.178 2.3 2.872.231.695.965 1.083 1.629.861.827-.275.496-1.421-1.05-3.632-2.069-2.959-4.758-4.365-4.758-2.487m-81.217 6.457c1.687.813 2.586.796 3.45-.068.889-.889.347-1.151-2.283-1.099-3.24.063-3.311.134-1.167 1.167M0 221.417c0 .87.712 1.583 1.583 1.583 1.766 0 1.459-2.153-.395-2.771-.654-.218-1.188.317-1.188 1.188m167 .555c0 1.356 1.777 2.198 2.425 1.149.31-.501-.109-1.169-.931-1.485-.822-.315-1.494-.164-1.494.336m-26.978 2.59c-.049 2.363 4.128 9.438 5.573 9.438 1.387 0 1.385-.163-.024-1.571-.864-.865-1.581-2.102-1.593-2.75-.029-1.502-3.926-6.543-3.956-5.117" fill="#1976D2" fill-rule="evenodd"/></svg>